<svg xmlns="http://www.w3.org/2000/svg" style="display: none;">
  <!-- Пользовательские данные -->
  <symbol id="icon-user" viewBox="0 0 16 16">
    <path d="M8 8a3 3 0 1 0 0-6 3 3 0 0 0 0 6zm2-3a2 2 0 1 1-4 0 2 2 0 0 1 4 0zm4 8c0 1-1 1-1 1H3s-1 0-1-1 1-4 6-4 6 3 6 4zm-1-.004c-.001-.246-.154-.986-.832-1.664C11.516 10.68 10.289 10 8 10c-2.29 0-3.516.68-4.168 1.332-.678.678-.83 1.418-.832 1.664h10z"/>
  </symbol>
  
  <symbol id="icon-password" viewBox="0 0 16 16">
    <path d="M8 1a2 2 0 0 1 2 2v4H6V3a2 2 0 0 1 2-2zm3 6V3a3 3 0 0 0-6 0v4a2 2 0 0 0-2 2v5a2 2 0 0 0 2 2h6a2 2 0 0 0 2-2V9a2 2 0 0 0-2-2z"/>
  </symbol>
  
  <symbol id="icon-email" viewBox="0 0 16 16">
    <path d="M0 4a2 2 0 0 1 2-2h12a2 2 0 0 1 2 2v8a2 2 0 0 1-2 2H2a2 2 0 0 1-2-2V4zm2-1a1 1 0 0 0-1 1v.217l7 4.2 7-4.2V4a1 1 0 0 0-1-1H2zm13 2.383-4.758 2.855L15 11.114v-5.73zm-.034 6.878L9.271 8.82 8 9.583 6.728 8.82l-5.694 3.44A1 1 0 0 0 2 13h12a1 1 0 0 0 .966-.739zM1 11.114l4.758-2.876L1 5.383v5.73z"/>
  </symbol>
  
  <symbol id="icon-phone" viewBox="0 0 16 16">
    <path d="M3 2a2 2 0 0 1 2-2h6a2 2 0 0 1 2 2v12a2 2 0 0 1-2 2H5a2 2 0 0 1-2-2V2zm6 11a1 1 0 1 0-2 0 1 1 0 0 0 2 0z"/>
  </symbol>
  
  <symbol id="icon-fullname" viewBox="0 0 16 16">
    <path d="M3 14s-1 0-1-1 1-4 6-4 6 3 6 4-1 1-1 1H3zm5-6a3 3 0 1 0 0-6 3 3 0 0 0 0 6z"/>
    <path fill-rule="evenodd" d="M14.5 3a1 1 0 0 1 1 1v9a1 1 0 0 1-1 1h-13a1 1 0 0 1-1-1V4a1 1 0 0 1 1-1h13zm-13-1a2 2 0 0 0-2 2v9a2 2 0 0 0 2 2h13a2 2 0 0 0 2-2V4a2 2 0 0 0-2-2h-13z"/>
  </symbol>
  
  <symbol id="icon-address" viewBox="0 0 16 16">
    <path d="M12.166 8.94c-.524 1.062-1.234 2.12-1.96 3.07A31.493 31.493 0 0 1 8 14.58a31.481 31.481 0 0 1-2.206-2.57c-.726-.95-1.436-2.008-1.96-3.07C3.304 7.867 3 6.862 3 6a5 5 0 0 1 10 0c0 .862-.305 1.867-.834 2.94zM8 16s6-5.686 6-10A6 6 0 0 0 2 6c0 4.314 6 10 6 10z"/>
    <path d="M8 8a2 2 0 1 1 0-4 2 2 0 0 1 0 4zm0 1a3 3 0 1 0 0-6 3 3 0 0 0 0 6z"/>
  </symbol>
  
  <symbol id="icon-license" viewBox="0 0 16 16">
    <path d="M6 4.5a1.5 1.5 0 1 1-3 0 1.5 1.5 0 0 1 3 0zm-1 0a.5.5 0 1 0-1 0 .5.5 0 0 0 1 0z"/>
    <path d="M2 1h4.586a1 1 0 0 1 .707.293l7 7a1 1 0 0 1 0 1.414l-4.586 4.586a1 1 0 0 1-1.414 0l-7-7A1 1 0 0 1 1 6.586V2a1 1 0 0 1 1-1zm0 5.586 7 7L13.586 9l-7-7H2v4.586z"/>
  </symbol>
  
  <symbol id="icon-calendar" viewBox="0 0 16 16">
    <path d="M3.5 0a.5.5 0 0 1 .5.5V1h8V.5a.5.5 0 0 1 1 0V1h1a2 2 0 0 1 2 2v11a2 2 0 0 1-2 2H2a2 2 0 0 1-2-2V3a2 2 0 0 1 2-2h1V.5a.5.5 0 0 1 .5-.5zM1 4v10a1 1 0 0 0 1 1h12a1 1 0 0 0 1-1V4H1z"/>
  </symbol>
  
  <symbol id="icon-time" viewBox="0 0 16 16">
    <path d="M8 3.5a.5.5 0 0 0-1 0V9a.5.5 0 0 0 .252.434l3.5 2a.5.5 0 0 0 .496-.868L8 8.71V3.5z"/>
    <path d="M8 16A8 8 0 1 0 8 0a8 8 0 0 0 0 16zm7-8A7 7 0 1 1 1 8a7 7 0 0 1 14 0z"/>
  </symbol>
  
  <symbol id="icon-car" viewBox="0 0 16 16">
    <path d="M4 9a1 1 0 1 1-2 0 1 1 0 0 1 2 0zm10 0a1 1 0 1 1-2 0 1 1 0 0 1 2 0zM6 8a1 1 0 0 0 0 2h4a1 1 0 1 0 0-2H6zM4.862 4.276 3.906 6.19a.51.51 0 0 0 .497.731c.91-.073.995-.375 1.076-.661l.705-2.236.042-.147a2.5 2.5 0 0 1 .67-1.132c.13-.126.294-.25.48-.395A12.5 12.5 0 0 1 8.5 2.069c.806-.135 1.39-.134 1.82-.064.43.068.76.196.966.346.157.116.289.25.392.39.106.142.189.3.245.48.028.091.05.185.068.28.018.09.028.186.03.28.002.09-.01.177-.032.258a.51.51 0 0 0 .235.476l.56-.187-.137.483a2.5 2.5 0 0 1-.287.661c-.128.2-.285.379-.467.534a4.5 4.5 0 0 1-.616.39 6.7 6.7 0 0 1-.725.34 16.2 16.2 0 0 1-1.27.528c-.338.135-.665.264-.944.352-.282.09-.54.152-.695.163-.156.011-.3-.035-.41-.18a.51.51 0 0 0-.705-.098l.133.048a1.5 1.5 0 0 1 .145.141c.146.15.317.28.51.37.192.09.43.15.795.149.364-.001.671-.055.879-.131a.51.51 0 0 0 .326-.356l.233.827a2.5 2.5 0 0 1 .89.118 5.3 5.3 0 0 1-.704.138c-.264.043-.514.064-.74.064-.227 0-.481-.021-.748-.065a5.44 5.44 0 0 1-.707-.14 4.3 4.3 0 0 1-.634-.196c-.2-.08-.384-.17-.53-.265a2.5 2.5 0 0 1-.422-.333 1.94 1.94 0 0 1-.287-.387 1.67 1.67 0 0 1-.145-.43 2.5 2.5 0 0 1-.061-.488c-.002-.14.004-.276.018-.404a2.5 2.5 0 0 1 .062-.37c.036-.126.08-.243.133-.354.107-.22.244-.413.407-.572a2.17 2.17 0 0 1 .342-.249z"/>
    <path d="M14 7.5a1.5 1.5 0 0 0-1.5-1.5h-11A1.5 1.5 0 0 0 0 7.5v1A1.5 1.5 0 0 0 1.5 10h11a1.5 1.5 0 0 0 1.5-1.5v-1zM1.5 9a.5.5 0 0 1-.5-.5v-1a.5.5 0 0 1 .5-.5h11a.5.5 0 0 1 .5.5v1a.5.5 0 0 1-.5.5h-11z"/>
  </symbol>
  
  <symbol id="icon-payment" viewBox="0 0 16 16">
    <path d="M0 4a2 2 0 0 1 2-2h12a2 2 0 0 1 2 2v8a2 2 0 0 1-2 2H2a2 2 0 0 1-2-2V4zm2-1a1 1 0 0 0-1 1v1h14V4a1 1 0 0 0-1-1H2zm13 4H1v5a1 1 0 0 0 1 1h12a1 1 0 0 0 1-1V7z"/>
    <path d="M2 10a1 1 0 0 1 1-1h1a1 1 0 0 1 1 1v1a1 1 0 0 1-1 1H3a1 1 0 0 1-1-1v-1z"/>
  </symbol>
  
  <symbol id="icon-agreement" viewBox="0 0 16 16">
    <path d="M10.854 7.146a.5.5 0 0 1 0 .708l-3 3a.5.5 0 0 1-.708 0l-1.5-1.5a.5.5 0 1 1 .708-.708L7.5 9.793l2.646-2.647a.5.5 0 0 1 .708 0z"/>
    <path d="M3.5 0a.5.5 0 0 1 .5.5V1h8V.5a.5.5 0 0 1 1 0V1h1a2 2 0 0 1 2 2v11a2 2 0 0 1-2 2H2a2 2 0 0 1-2-2V3a2 2 0 0 1 2-2h1V.5a.5.5 0 0 1 .5-.5zM1 4v10a1 1 0 0 0 1 1h12a1 1 0 0 0 1-1V4H1z"/>
  </symbol>
</svg> 